<svg preserveAspectRatio="none" width="100%" height="100%" overflow="visible" style="display: block;" viewBox="0 0 320 209.161" fill="none" xmlns="http://www.w3.org/2000/svg">
<g id="jeju">
<path id="Vector 2" d="M144.609 21C146.151 20.196 147.986 21.6751 149.03 21.5523C149.914 21.4946 149.608 20.8209 149.767 20.2632C150.133 18.9749 151.609 19.3427 152.345 19.7109C153.524 19.8582 153.582 18.4785 154.372 17.6857C154.738 17.3179 155.293 17.6857 155.293 18.238C155.109 19.7109 156.398 19.1586 158.24 20.2632C160.082 21.3679 160.635 19.7109 161.188 18.238C161.63 17.0597 163.643 17.0329 164.319 18.0539C164.685 18.6067 165.67 18.5448 165.977 18.238C166.714 17.207 167.389 17.6857 167.635 18.0539C167.93 18.643 168.74 18.7903 169.109 18.7903C170.73 18.9376 171.335 18.7013 171.504 17.6857C171.87 15.4768 172.494 14.4402 173.896 13.6357C175.27 12.8473 176.293 13.8193 177.767 14.0034C179.24 14.1876 179.793 14.1876 182.556 12.8988C184.767 11.8678 187.284 12.7147 188.267 13.267C189.636 14.0365 190.129 13.267 189.556 11.9782C188.983 10.6895 189.188 9.58479 189.556 9.40068C190.039 9.07913 190.998 9.46385 191.214 9.03246C191.583 8.29601 191.144 7.88384 191.583 7.19135C191.909 6.67599 192.688 6.63902 192.872 6.08669C192.872 2.77269 196.618 6.08668 198.583 8.29601C199.753 9.61172 201.714 10.6895 203.372 9.95301C203.938 9.70181 204.478 9.21657 204.662 8.48012C204.962 7.28005 205.55 5.93853 206.872 5.90257C208.009 5.87165 208.059 7.28933 209.267 7.55957C211.001 7.94752 210.741 5.90257 213.688 6.08669C215.06 6.17237 215.912 5.8604 217.188 5.35024C218.109 4.98202 218.786 4.92778 219.767 5.16628C220.3 5.29569 220.514 5.4221 221.057 5.35024C221.888 5.24022 221.398 3.94188 222.162 3.50913C223.038 3.0128 224.353 4.05548 224.925 3.14091C225.846 1.66803 227.873 2.9568 227.873 2.9568C227.873 2.9568 229.531 3.69325 230.82 3.50913C232.6 3.25493 232.552 2.36753 235.794 2.9568C239.036 3.54608 238.528 1.05987 239.662 0.379757C241.504 -0.724957 244.268 0.932044 246.662 0.932011C248.722 0.931983 251.452 1.81772 251.452 3.87782C251.452 4.79837 252.004 4.79837 252.373 4.79837C253.435 4.79837 253.509 3.80604 254.399 3.50959C254.952 3.32548 255.627 3.69371 256.241 3.69371C258.083 3.69371 257.866 1.79449 259.373 1.66849C263.259 1.34364 265.452 6.82359 264.899 9.76936C264.605 10.9477 265.083 11.7946 265.82 11.9784C269.21 12.1257 269.689 12.9605 269.32 13.4515C268.289 14.6298 269.045 14.9476 269.689 15.1086C270.426 15.2929 271.929 14.5231 273.005 15.1086C273.719 15.4975 273.796 16.852 274.478 16.3973C275.584 15.6611 275.829 16.8883 275.768 17.1338C275.768 19.159 277.758 19.162 278.347 18.2381C279.636 16.2132 282.388 16.0243 284.61 17.1335C285.074 17.3651 285.347 17.8698 285.715 17.8698C291.757 17.7225 292.531 21.0001 292.163 23.3931C292.006 24.4106 290.689 25.6029 293.268 25.2347C298.377 24.5052 297.873 29.4697 296.584 31.3103C295.552 32.7829 295.908 33.3969 296.215 34.8084C296.4 37.386 293.905 35.4958 293.268 36.465C292.352 37.8591 292.683 39.4304 294.189 40.1476C294.777 40.4277 295.294 39.4112 295.479 39.9635C296.215 42.5411 296.447 43.9976 298.058 43.4612C302.479 41.9887 304.321 43.1543 304.873 44.0135C305.794 45.671 305.365 47.3889 304.505 47.8799C303.645 48.3708 302.539 49.8303 301.742 51.378C300.41 53.9639 299.556 56.0421 300.637 58.7424C301.005 59.6634 301.742 60.7681 300.821 60.7681C298.463 60.1789 298.426 62.7933 298.794 64.0821C298.979 65.5549 297.873 65.4931 297.321 65.9227C295.552 66.9538 295.479 68.1934 295.663 68.6844C296.105 69.5681 295.847 69.9118 295.663 69.9732C294.631 70.5623 294.619 71.8143 294.742 72.3666C294.889 73.2503 294.189 73.8395 293.821 74.0236C292.2 74.6128 293.145 76.3557 293.821 77.1535C294.41 78.0372 294.75 79.3113 294.005 80.2834C293.436 81.0254 292.68 80.9043 291.794 81.2039C291.017 81.4667 290.382 81.8176 289.768 81.7563C289.154 81.6949 288.63 82.2131 288.294 82.4931C287.189 83.4137 286.207 83.7201 285.347 83.9656C284.242 84.1497 284.426 85.0707 284.426 85.8071C284.426 86.6003 282.154 88.3229 280.926 89.1207C280.557 89.36 280.768 89.8576 280.926 90.0412C281.81 91.0723 280.926 91.821 280.373 92.0665C278.31 92.6556 278.899 94.8895 279.452 95.9328C280.189 97.5529 278.531 99.7995 276.873 100.72C276.382 100.992 275.706 101.333 275.768 101.64C276.505 103.26 275.399 104.771 274.663 104.771C272.527 104.769 270.241 107.348 270.241 107.348C270.241 107.348 268.732 108.889 268.584 109.742C268.422 110.665 269.193 110.806 269.873 110.846C272.378 110.993 270.447 114.031 269.136 115.08C268.215 115.817 267.975 115.537 267.662 116.185C267.472 116.579 268.339 117.167 267.662 117.29C266.041 117.585 265.727 117.982 265.083 118.947C264.347 120.052 262.689 120.052 261.399 119.499C259.908 118.859 258.083 119.684 257.347 120.419L257.344 120.422C256.862 120.903 256.424 121.341 255.689 121.34C254.969 121.34 254.399 120.481 253.847 120.972C252.962 121.708 252.557 121.525 252.189 120.972C251.885 120.516 251.083 120.052 250.347 120.788C249.61 121.525 248.873 120.972 248.873 120.972C248.873 120.972 246.478 119.56 245.557 119.499C244.083 119.204 243.592 119.99 243.531 120.419C243.531 121.451 242.303 122.199 241.689 122.445C240.215 122.739 240.369 124.373 239.478 125.575C239.264 125.863 239.15 126.03 238.925 126.311C237.166 128.514 234.013 129.625 233.215 130.73C231.446 133.234 229.285 132.387 228.425 131.65C227.246 130.767 225.294 132.019 224.557 132.571C223.861 133.092 222.837 133.43 222.53 133.307C221.204 132.865 217.802 134.351 216.267 135.148C211.699 137.652 209.451 137.174 208.899 136.621C208.015 135.59 206.688 135.885 206.32 136.253C205.751 136.821 205.951 137.542 204.293 136.621C202.636 135.7 195.451 136.621 193.241 138.095C191.688 139.129 192.327 140.754 191.399 142.145C190.662 143.25 188.697 143.863 188.083 143.617C187.051 143.176 187.264 144.511 186.609 144.906C185.888 145.341 185.243 145.121 184.583 145.643C183.749 146.301 183.293 147.361 183.293 148.036C183.293 149.804 181.267 150.43 179.056 150.614C178.217 150.683 177.589 151.139 176.846 151.535C174.083 153.008 173.161 150.614 172.24 149.325C171.436 148.199 169.723 148.282 168.74 148.773C168.151 149.214 166.346 148.22 165.609 148.22C163.103 148.22 163.588 150.129 164.319 150.982C165.425 152.272 163.951 153.192 162.661 152.823C160.55 152.22 159.161 150.798 157.872 149.877C157.404 149.543 156.644 149.632 156.398 149.877C155.784 150.675 154.446 151.902 154.003 150.43C153.561 148.957 152.1 149.57 151.424 150.061C150.245 150.945 148.231 150.307 147.372 149.877C144.866 148.993 144.609 149.509 144.793 149.877C145.235 151.35 143.095 153.921 140.924 154.665C138.855 155.374 135.398 153.375 135.398 153.375C135.398 153.375 135.047 153.183 134.661 153.376C134.051 153.681 134.611 155.041 134.108 155.585C133.256 156.507 131.407 155.83 130.793 156.321C130.351 157.058 129.749 156.873 129.503 156.689C128.766 155.806 127.722 156.198 127.293 156.505C126.408 156.947 126.187 156.567 126.187 156.321C126.187 154.848 124.959 154.357 124.345 154.296C123.461 154.296 123.363 153.928 123.424 153.744C123.719 151.387 122.073 150.184 121.214 149.877C118.266 148.846 118.035 150.27 116.24 151.166C115.871 151.351 115.319 151.534 115.135 151.35C114.643 150.859 113.477 150.319 112.74 152.087C112.003 153.854 111.45 153.191 111.266 152.639C111.266 152.344 110.898 152.271 110.713 152.271C108.503 152.123 107.091 150.368 106.661 149.509C106.513 148.92 106.108 148.895 105.924 148.957C105.187 149.546 104.512 148.957 104.266 148.588C103.677 147.557 101.687 148.588 101.687 148.588C101.687 148.588 99.2923 149.877 98.1871 150.245C97.0081 150.54 95.6081 151.841 95.0555 152.455C93.7291 154.37 92.9063 154.112 92.6607 153.744C91.6291 152.565 90.1431 153.866 89.5291 154.664C88.6449 155.842 87.687 155.585 87.5028 155.032C87.342 154.55 86.5377 154.112 86.0291 154.112C85.4764 154.113 85.0466 153.559 84.9238 153.191C84.629 151.571 81.9764 152.025 80.6869 152.455C79.3606 153.338 77.9237 152.577 77.3711 152.087C77.0763 151.792 76.1389 151.705 75.5289 152.087C74.0553 153.008 73.4412 152.455 73.5026 151.902C73.65 149.546 73.1956 149.57 72.95 149.877C72.2131 151.203 71.6605 150.921 71.4763 150.614C71.4763 148.588 69.8184 149.877 69.6342 150.245C69.4868 150.54 69.2657 150.798 68.8973 150.798C67.6247 150.798 66.4411 152.148 66.5025 153.007C66.6499 154.333 65.8271 154.05 65.3973 153.744C64.8078 153.449 63.9439 153.742 64.1078 155.216C64.292 156.874 63.1867 156.628 62.8183 156.321C61.1972 155.29 59.1439 157.332 58.3972 159.267C57.9312 160.474 58.7379 161.332 58.3972 162.581C58.1432 163.511 57.393 163.831 57.2919 164.79C57.2618 165.076 57.4659 165.424 57.4761 165.711C57.5098 166.656 56.9849 167.245 57.6603 167.92C58.6919 169.393 57.9674 170.375 57.4761 170.682C56.8621 170.989 55.5972 171.124 55.4498 169.209C55.3024 167.294 52.0921 168.132 50.4761 169.209C48.2655 170.682 46.9178 170.641 46.055 169.393C45.5625 168.681 45.9322 167.859 46.4234 167.368C47.0129 166.779 46.9146 165.649 46.7918 165.158C45.9076 162.507 45.2567 163.686 44.9497 164.422C44.2128 165.748 43.476 165.527 43.2918 164.054C43.2596 163.796 43.2918 163.318 42.9234 163.501C42.1894 163.867 41.0125 162.896 40.7128 162.397C40.1602 161.477 40.093 160.146 39.7918 159.636C39.2207 158.668 38.079 158.139 37.9496 157.794C37.397 156.322 38.1338 155.585 37.5812 155.401C36.5185 155.046 36.2917 154.664 36.1075 153.191C35.9233 151.718 34.6338 152.087 33.5285 151.718C32.6443 151.424 33.18 150.732 32.6075 150.246C32.0018 149.732 31.048 150.082 30.3969 149.878C29.1149 149.475 28.3706 148.527 27.6337 148.773C25.4232 149.362 23.0284 147.852 20.8179 145.827C18.855 144.029 17.1336 142.206 15.6599 141.408C14.3704 140.488 14.002 138.095 13.6336 137.358C13.3389 136.769 11.9143 135.578 11.2388 134.965C10.0599 133.934 10.5719 133.219 10.3178 132.203C9.94934 130.731 8.00685 130.194 7.55229 128.889C6.85161 126.878 7.55224 124.654 8.84172 124.102C9.87331 123.218 8.36933 121.638 8.10487 120.052C7.92066 118.947 8.00277 118.501 8.28909 117.658C8.67207 116.531 9.39217 115.895 9.57857 114.713C9.79097 113.365 9.29426 112.773 8.4733 111.951C7.55415 111.03 7.4583 110.291 7.73646 109.373C7.91579 108.781 8.51399 108.862 8.65752 108.269C8.86377 107.416 7.39185 107.249 7.55415 106.427C7.70213 105.677 8.61443 105.781 9.02807 105.138C9.3972 104.565 8.84593 103.874 9.21016 103.298C10.0522 101.964 11.8868 103.015 13.0786 101.825C14.0347 100.87 14.1416 100.027 14.3681 98.6949C14.5614 97.5585 13.7397 96.5644 14.5544 95.7486C15.4734 94.8286 16.0281 96.301 17.8702 94.2758C19.3439 92.6556 19.8732 92.4042 21.3703 92.6188C22.6577 92.8033 24.6124 91.6922 24.3156 90.2258C24.1293 89.3057 25.7299 88.2001 26.5281 88.2001C28.0018 88.0528 28.5823 86.5797 27.9998 85.8071C27.4449 85.0711 28.1226 84.0888 28.7367 83.966C30.2104 83.3769 30.456 82.0635 30.3946 81.3885C30.3946 80.4679 32.239 79.9152 33.1601 81.2039C33.8969 82.2349 35.1841 81.5726 35.3703 81.2039C35.6013 80.7468 35.1124 79.5469 36.2914 79.5469C37.4704 79.5469 38.0107 78.9332 38.1335 78.6264C38.4283 76.5643 39.116 76.417 39.423 76.6012C40.7493 77.043 41.5722 76.0488 41.8178 75.4965C41.8178 73.2872 42.6774 72.8576 43.1073 72.9189C44.7283 73.0662 44.6424 71.9984 44.3967 71.4461C43.8073 70.7096 43.7136 70.2607 43.6601 69.4208C43.5448 67.6098 45.1338 66.1682 46.2391 65.5545C47.7127 64.5235 46.8531 62.7928 46.2391 62.0564C45.3548 60.8781 45.5 60.3998 45.8706 60.0312C46.5863 59.3193 48.2632 60.0316 48.8158 59.4793C49.4659 58.8295 49.8619 59.5402 49.9233 60.0312C50.3654 60.9149 51.3989 59.1108 51.397 58.1901C51.3948 57.0858 52.1339 56.9013 52.5023 57.0854C53.5339 57.38 54.1602 56.7172 54.3444 56.349C54.7865 55.6125 56.2479 56.2876 56.9234 56.7172C57.8076 56.8645 58.1515 55.7966 58.2129 55.2443C58.3602 54.8024 59.7453 54.9701 60.6076 54.5079C61.7292 53.9067 62.4663 53.3379 62.816 52.1149L62.8396 52.0321C63.1902 50.8046 63.3295 50.317 64.1076 49.5369C64.6581 48.985 64.867 48.4174 64.6603 47.6958C64.5056 47.156 63.9058 47.1274 63.7395 46.5911C63.3262 45.2576 66.1343 43.2771 66.6869 44.5658C67.129 45.5969 68.7132 45.2409 69.4501 44.9341C71.5133 43.7558 71.5925 44.8982 72.7659 45.4864C73.8687 46.0392 75.008 45.7999 75.5266 44.7504C75.7083 44.3827 75.8792 44.1426 76.2659 44.0135C76.8161 43.8299 77.1201 43.9363 77.5554 43.6453C78.1056 43.2775 78.8449 42.3565 79.3976 42.7247C79.9502 43.093 80.5028 42.9089 81.2397 41.0677C81.8292 39.5949 82.8258 39.3997 84.0004 39.5953C85.1057 39.7794 85.8741 40.3595 87.132 40.1477C88.6402 39.8937 88.4288 38.5928 89.711 37.9383C90.401 37.5861 91.5556 37.631 91.924 37.2014C93.6924 34.2556 94.898 34.8341 95.9742 35.9131C96.8928 36.8341 97.1337 38.2472 98.3689 37.9383C99.1033 37.7547 100.211 36.4036 100.579 36.8332C101.611 37.5696 101.871 37.2628 102.056 36.8332C102.203 34.6239 104.202 34.4402 105.185 34.8084C106.364 35.6922 107.253 34.1992 107.95 33.151C108.685 32.0468 109.854 32.2918 109.977 32.9669C110.272 34.2925 112.861 32.816 114.58 32.0468C115.527 31.6229 116.238 30.2057 116.977 30.9417C117.861 31.9727 119.308 31.4944 119.922 31.3103C121.101 30.7212 118.494 29.7158 119.001 28.9169C119.488 28.1486 120.792 28.0596 121.766 28.5482C122.501 28.9169 123.873 28.5392 123.608 27.8118C122.869 25.7866 126.805 25.1723 128.95 25.7866C130.238 26.1552 131.621 25.5324 131.713 24.3137C131.896 21.9204 133.152 21.1782 134.843 20.816C136.14 20.5382 137.67 21.3067 138.161 21.9204C139.192 22.9514 141.475 23.3936 142.948 22.6571C143.734 22.2646 143.796 21.4234 144.609 21Z" fill="var(--fill-0, #E8DECD)"/>
<path id="Vector 3" d="M313.16 18.6064C311.75 18.0577 310.151 19.467 310.212 21.0013C310.234 21.5537 310.949 22.4745 310.212 23.0268C308.128 24.589 308.37 24.6838 308.37 25.052C308.37 25.4203 309.292 26.3389 308.186 26.523C307.081 26.7071 306.898 28.3641 307.635 28.9165C308.371 29.4688 308.924 30.5734 308.37 31.8622C307.895 32.9669 308.699 33.5192 309.291 33.5192C309.844 33.5192 310.765 33.2986 310.765 33.7033C310.765 34.9921 313.013 34.9732 313.712 34.6239C314.449 34.2557 314.633 33.5192 315.554 34.808C316.475 36.0968 316.988 35.4663 317.581 34.9921C318.502 34.2557 317.212 31.7414 318.133 32.0483C320.344 32.7847 320.427 29.8071 319.239 28.9165C318.502 28.3641 317.581 26.8912 317.949 25.6025C318.317 24.3137 316.475 22.6567 315.738 23.7614C315.002 24.866 314.138 23.8024 314.081 23.0268C314.02 22.2088 315.631 22.2885 315.738 21.7361C316.002 20.3798 314.112 18.9773 313.16 18.6064Z" fill="var(--fill-0, #E8DECD)"/>
<path id="Vector 4" d="M30.764 73.6551C30.9114 71.0039 31.4649 70.7093 32.7903 70.8934C33.8592 71.042 34.264 71.6299 34.4483 73.1028C34.6325 74.5757 30.5798 76.9691 30.764 73.6551Z" fill="var(--fill-0, #E8DECD)"/>
<path id="Vector 5" d="M47.342 181.177C48.521 179.851 49.5013 179.64 50.2907 180.256C50.5263 180.44 50.6591 180.441 50.8433 181.361C51.0276 182.282 52.5013 182.098 52.6855 182.834C52.8195 183.37 52.6855 183.755 51.9486 183.755C51.1671 183.755 50.8433 183.939 50.8433 184.491C50.8433 185.412 48.6328 186.148 48.6328 185.228C48.6328 184.307 48.6309 184.491 47.8941 183.939C47.1572 183.386 45.8683 182.834 47.342 181.177Z" fill="var(--fill-0, #E8DECD)"/>
<path id="Vector 6" d="M47.5863 204.342C48.5178 202.836 49.1388 204.091 49.3329 204.907C49.6244 206.601 49.3329 209.801 47.5863 209.048C45.8397 208.295 46.4219 206.225 47.5863 204.342Z" fill="var(--fill-0, #E8DECD)"/>
<path id="Vector 7" d="M1.288 118.324C-0.812685 117.591 0.120953 117.254 0.850358 117.178C3.03843 116.49 0.412855 116.261 2.60107 116.032C4.78928 115.803 3.914 116.949 3.69518 117.178C3.47635 117.407 3.91386 119.241 1.288 118.324Z" fill="var(--fill-0, #E8DECD)"/>
<path id="Vector 8" d="M143.502 161.292C142.47 160.703 143.072 159.696 143.502 159.267C144.791 158.898 145.16 159.635 144.976 160.739C144.792 161.844 144.791 162.028 143.502 161.292Z" fill="var(--fill-0, #E8DECD)"/>
<path id="Vector 9" d="M163.542 157.415C162.699 157.703 162.017 156.866 161.781 156.412C161.875 155.504 162.633 155.662 163.535 156.312C164.436 156.963 164.596 157.054 163.542 157.415Z" fill="var(--fill-0, #E8DECD)"/>
<path id="Vector 10" d="M176.793 156.159C175.497 156.77 174.614 155.479 174.334 154.758C174.613 153.23 175.715 153.374 176.953 154.321C178.191 155.267 178.414 155.394 176.793 156.159Z" fill="var(--fill-0, #E8DECD)"/>
</g>
</svg>
